<svg width="221" height="93" viewBox="0 0 221 93" fill="none" xmlns="http://www.w3.org/2000/svg">
<g clip-path="url(#clip0_64_13)">
<path d="M8.11692 42.4124H0V50.5293H8.11692V42.4124Z" fill="#00FFA7"/>
<path d="M24.2029 28.9433H13.3951V39.7511H24.2029V28.9433Z" fill="#00FFA7"/>
<path d="M22.5913 47.8385H17.1801V53.2498H22.5913V47.8385Z" fill="#00FFA7"/>
<path d="M45.6115 82.9527C47.09 82.3761 48.4651 81.489 49.7514 80.2471L55.4287 86.3976C51.9691 90.36 46.9126 92.3412 40.2594 92.3412C36.1048 92.3412 32.4381 91.528 29.2594 89.9165C26.0658 88.3049 23.6115 86.0576 21.8817 83.1893C20.1519 80.321 19.2795 77.0535 19.2795 73.4164C19.2795 69.7793 20.1371 66.571 21.8374 63.6732C23.5525 60.7753 25.8884 58.528 28.875 56.9016C31.8615 55.2901 35.2177 54.4769 38.9583 54.4769C42.4623 54.4769 45.6559 55.2162 48.5242 56.6947C51.3925 58.1732 53.6841 60.317 55.3991 63.1261C57.1142 65.9352 57.957 69.2471 57.957 73.0764L30.7527 78.3398C31.5215 80.1584 32.7487 81.5333 34.4046 82.4352C36.0605 83.3519 38.1008 83.7955 40.5255 83.7955C42.4328 83.7955 44.133 83.5146 45.6115 82.938V82.9527ZM32.3938 65.1517C30.7083 66.8815 29.8212 69.2766 29.7325 72.3223L47.6371 68.8331C47.1344 66.9258 46.1143 65.3882 44.5618 64.2498C43.0094 63.1113 41.1465 62.5347 38.9583 62.5347C36.2674 62.5347 34.0793 63.407 32.3938 65.1369V65.1517Z" fill="white"/>
<path d="M100.952 55.0387L85.4274 91.8089H74.4274L58.9772 55.0387H69.9772L80.1639 80.0549L90.6908 55.0387H100.952Z" fill="white"/>
<path d="M111.375 89.9312C108.3 88.3196 105.89 86.0724 104.16 83.2041C102.43 80.3358 101.558 77.0683 101.558 73.4312C101.558 69.7941 102.415 66.5267 104.16 63.6584C105.89 60.7901 108.3 58.5428 111.375 56.9312C114.45 55.3196 117.925 54.5065 121.798 54.5065C125.672 54.5065 129.132 55.3196 132.192 56.9312C135.238 58.5428 137.633 60.7901 139.363 63.6584C141.093 66.5267 141.965 69.7941 141.965 73.4312C141.965 77.0683 141.093 80.3358 139.363 83.2041C137.633 86.0724 135.238 88.3196 132.192 89.9312C129.132 91.5428 125.672 92.356 121.798 92.356C117.925 92.356 114.45 91.5428 111.375 89.9312ZM128.525 80.8385C130.285 78.9904 131.157 76.5213 131.157 73.4164C131.157 70.3116 130.285 67.8425 128.525 65.9944C126.766 64.1463 124.534 63.2296 121.798 63.2296C119.063 63.2296 116.801 64.1463 115.027 65.9944C113.253 67.8425 112.366 70.3116 112.366 73.4164C112.366 76.5213 113.253 78.9904 115.027 80.8385C116.801 82.6866 119.063 83.6033 121.798 83.6033C124.534 83.6033 126.781 82.6866 128.525 80.8385Z" fill="white"/>
<path d="M189.067 55.0387V91.8089H178.88V87.5656C176.234 90.7592 172.405 92.356 167.392 92.356C163.933 92.356 160.798 91.5871 157.989 90.0347C155.18 88.4823 152.992 86.2793 151.395 83.411C149.798 80.5428 149 77.2161 149 73.4312C149 69.6463 149.798 66.3196 151.395 63.4514C152.992 60.5831 155.195 58.3654 157.989 56.8277C160.798 55.2753 163.918 54.5065 167.392 54.5065C172.079 54.5065 175.761 55.985 178.392 58.942V55.0387H189.052H189.067ZM175.953 80.8385C177.727 78.9904 178.614 76.5213 178.614 73.4164C178.614 70.3116 177.727 67.8425 175.953 65.9944C174.179 64.1463 171.946 63.2296 169.255 63.2296C166.565 63.2296 164.258 64.1463 162.484 65.9944C160.71 67.8425 159.823 70.3116 159.823 73.4164C159.823 76.5213 160.71 78.9904 162.484 80.8385C164.258 82.6866 166.52 83.6033 169.255 83.6033C171.991 83.6033 174.179 82.6866 175.953 80.8385Z" fill="#00FFA7"/>
<path d="M199 55.0387H209.66V91.8089H199V55.0387Z" fill="#00FFA7"/>
<path d="M172.338 36.7645C175.088 37.9769 178.297 36.7646 179.583 34.0589L190.952 37.6812C190.775 42.0723 193.229 46.3304 197.487 48.2081C203.032 50.6624 209.537 48.149 211.977 42.5898C214.327 37.2672 212.11 31.0871 207.024 28.4258L212.938 12.8573C215.762 13.3156 218.659 11.8371 219.872 9.08713C221.306 5.81966 219.827 1.99037 216.56 0.556234C213.293 -0.89269 209.463 0.58579 208.029 3.86805C206.728 6.82504 207.822 10.2404 210.469 11.9259L204.555 27.4944C199.469 26.2229 194.042 28.7511 191.854 33.7189C191.662 34.1624 191.499 34.6207 191.366 35.0643L180.085 31.4716C179.997 29.4312 178.784 27.5091 176.788 26.6221C173.979 25.3801 170.712 26.6516 169.47 29.4608C168.243 32.2551 169.499 35.5374 172.309 36.7793L172.338 36.7645Z" fill="#00FFA7"/>
</g>
<defs>
<clipPath id="clip0_64_13">
<rect width="221" height="93" fill="white"/>
</clipPath>
</defs>
</svg>
