<svg width="219" height="214" viewBox="0 0 219 214" fill="none" xmlns="http://www.w3.org/2000/svg">
<path d="M22.5701 128.045C30.793 134.655 42.773 133.459 49.5925 125.454L84.852 148.065C80.261 162.793 84.7144 179.46 97.4461 189.696C114.015 203.055 138.356 200.443 151.678 183.81C164.485 167.898 162.58 144.929 147.753 131.284L181.95 83.8694C191.109 87.9891 202.278 85.6089 208.887 77.386C216.718 67.61 215.184 53.2829 205.408 45.4516C195.646 37.5702 181.318 39.1042 173.474 48.9303C166.376 57.7744 166.983 70.3488 174.425 78.4681L140.228 125.883C124.138 116.951 103.443 120.593 91.5098 135.449C90.4552 136.779 89.4875 138.185 88.6334 139.568L53.6475 117.137C55.2004 110.139 52.8361 102.52 46.8743 97.6988C38.4778 90.9356 26.2433 92.2782 19.4801 100.675C12.7805 109.035 14.0598 121.306 22.4563 128.069L22.5701 128.045Z" fill="#00FFA7"/>
<path d="M130.474 173.409C132.451 172.638 134.289 171.452 136.009 169.792L143.599 178.014C138.974 183.311 132.214 185.96 123.319 185.96C117.765 185.96 112.863 184.873 108.614 182.718C104.345 180.564 101.064 177.559 98.7509 173.725C96.4384 169.89 95.2722 165.522 95.2722 160.66C95.2722 155.798 96.4187 151.509 98.6917 147.635C100.985 143.761 104.107 140.756 108.1 138.582C112.093 136.428 116.579 135.341 121.58 135.341C126.264 135.341 130.534 136.329 134.368 138.305C138.203 140.282 141.266 143.148 143.559 146.903C145.852 150.659 146.979 155.086 146.979 160.205L110.61 167.242C111.638 169.673 113.279 171.511 115.492 172.717C117.706 173.942 120.434 174.535 123.675 174.535C126.225 174.535 128.498 174.16 130.474 173.389V173.409ZM112.804 149.611C110.551 151.924 109.365 155.126 109.246 159.197L133.182 154.533C132.51 151.983 131.147 149.927 129.071 148.405C126.996 146.884 124.505 146.113 121.58 146.113C117.983 146.113 115.057 147.279 112.804 149.591V149.611Z" fill="#1C1C1C"/>
</svg>
