<svg width="200" height="159" viewBox="0 0 200 159" fill="none" xmlns="http://www.w3.org/2000/svg">
<path d="M8.07005 88.045C16.2929 94.655 28.2729 93.459 35.0924 85.454L70.3519 108.065C65.7609 122.793 70.2143 139.46 82.946 149.696C99.5149 163.055 123.856 160.443 137.178 143.81C149.985 127.898 148.08 104.929 133.253 91.284L167.45 43.8694C176.609 47.9891 187.778 45.6089 194.387 37.386C202.218 27.61 200.684 13.2829 190.908 5.4516C181.146 -2.4298 166.818 -0.8958 158.974 8.9303C151.876 17.7744 152.483 30.3488 159.925 38.4681L125.728 85.883C109.638 76.951 88.943 80.593 77.0098 95.449C75.9552 96.779 74.9874 98.185 74.1333 99.568L39.1474 77.137C40.7003 70.139 38.336 62.52 32.3742 57.6988C23.9777 50.9356 11.7432 52.2782 4.98005 60.675C-1.71955 69.035 -0.440253 81.306 7.95625 88.069L8.07005 88.045Z" fill="#00FFA7"/>
</svg>
