<svg width="48" height="48" viewBox="0 0 48 48" fill="none" xmlns="http://www.w3.org/2000/svg">
  <rect width="48" height="48" rx="8" fill="#25D366"/>
  <path d="M24 12C17.3833 12 12 17.3833 12 24C12 26.25 12.6333 28.35 13.7333 30.1667L12.1167 35.8833L18.05 34.3C19.8 35.3167 21.8333 35.8833 24 35.8833C30.6167 35.8833 36 30.5 36 23.8833C36 17.2667 30.6167 12 24 12ZM30.5 28.0167C30.1333 29.0333 28.9167 29.8833 27.9333 30.1167C27.2833 30.2667 26.4833 30.3833 24.1333 29.3833C21.1167 28.15 19.3 25.0333 19.1667 24.8833C19.0333 24.7333 18.1167 23.5333 18.1167 22.2833C18.1167 21.0333 18.7833 20.4333 19.0333 20.1667C19.2833 19.9 19.6 19.8167 19.8833 19.8167C19.9833 19.8167 20.0667 19.8167 20.1333 19.8167C20.3833 19.8167 20.6333 19.8 20.8833 20.4C21.1333 21 21.8 22.2833 21.8833 22.45C21.9667 22.6167 22.05 22.8333 21.95 23C21.85 23.1667 21.7667 23.2333 21.6333 23.3833C21.5 23.5333 21.35 23.6333 21.2167 23.8C21.0833 23.9667 20.9333 24.1333 21.1 24.4333C21.2667 24.7333 21.7833 25.65 22.5667 26.3667C23.5833 27.3167 24.4167 27.6167 24.7167 27.75C25.0167 27.8833 25.2167 27.8667 25.3833 27.6833C25.55 27.5 25.8667 27.1333 26.05 26.8333C26.2333 26.5333 26.4167 26.5833 26.6833 26.6833C26.95 26.7833 28.1833 27.3833 28.4833 27.5333C28.7833 27.6833 28.9833 27.75 29.0667 27.8667C29.15 27.9833 29.15 28.4333 28.9333 29C28.8667 29.0167 30.5 28.0167 30.5 28.0167Z" fill="white"/>
  <path d="M18 32L16 36L20 34L18 32Z" fill="#25D366"/>
</svg>
