<svg width="312" height="91" viewBox="0 0 312 91" fill="none" xmlns="http://www.w3.org/2000/svg">
<path d="M140.378 5.96777C142.611 0.915752 148.533 -1.38538 153.59 0.862281C158.664 3.09457 160.981 9.02505 158.731 14.0925C156.714 18.668 151.667 20.9771 146.973 19.7033L140.198 33.1458C147.259 37.6769 151.937 45.5973 151.937 54.6102C151.937 60.1833 150.148 65.3382 147.113 69.5328L156.428 74.9075C158.852 72.8806 162.317 72.2647 165.419 73.6262C169.777 75.5492 171.743 80.6198 169.833 84.9734C167.924 89.2946 162.858 91.2789 158.501 89.356L158.487 89.3062C154.224 87.4201 152.253 82.4792 153.999 78.1827L144.436 72.6672C139.827 77.2573 133.471 80.095 126.453 80.095C112.378 80.095 100.968 68.6851 100.968 54.6102C100.968 40.5354 112.378 29.1254 126.453 29.1254C130.053 29.1254 133.479 29.8723 136.585 31.2193L143.325 17.8464C139.847 15.089 138.504 10.2259 140.378 5.96777ZM126.453 41.7465C119.348 41.7465 113.589 47.5058 113.589 54.6102C113.589 61.7147 119.348 67.474 126.453 67.474C133.557 67.474 139.316 61.7147 139.316 54.6102C139.316 47.5058 133.557 41.7465 126.453 41.7465Z" fill="#00FFA7"/>
<path d="M100.864 31.748L81.5435 77.5373H67.8408L48.606 31.748H62.3087L74.9901 62.8983L88.097 31.748H100.864Z" fill="#0A0A0A"/>
<path d="M26.4692 67.5786C28.8523 67.5786 30.9517 67.2382 32.7674 66.5573C34.6398 65.8197 36.3704 64.6849 37.9591 63.1529L45.0232 70.8128C40.711 75.7492 34.4128 78.2174 26.1288 78.2174C20.9654 78.2174 16.3979 77.2244 12.4261 75.2385C8.45427 73.1959 5.3903 70.3873 3.23418 66.8126C1.07806 63.238 0 59.1811 0 54.6419C0 50.1594 1.04969 46.1309 3.14907 42.5563C5.30519 38.9249 8.22731 36.1163 11.9154 34.1304C15.6603 32.0877 19.859 31.0664 24.5117 31.0664C28.8807 31.0664 32.8525 32.0026 36.4271 33.875C40.0017 35.6907 42.8387 38.3575 44.9381 41.8754C47.0942 45.3365 48.1723 49.4502 48.1723 54.2163L14.2985 60.7698C15.2631 63.0394 16.7667 64.7416 18.8093 65.8764C20.9087 67.0112 23.462 67.5786 26.4692 67.5786ZM24.5117 41.1094C21.164 41.1094 18.4405 42.1875 16.3411 44.3436C14.2418 46.4997 13.1353 49.4785 13.0218 53.2801L35.3207 48.9395C34.6965 46.5564 33.4199 44.6556 31.4907 43.2371C29.5616 41.8186 27.2352 41.1094 24.5117 41.1094Z" fill="#0A0A0A"/>
<path d="M221.324 46.6007H217.241C216.937 45.0803 216.387 43.6758 215.59 42.3871C214.808 41.0839 213.824 39.9472 212.636 38.977C211.449 38.0069 210.102 37.2539 208.596 36.7182C207.091 36.1824 205.462 35.9145 203.709 35.9145C200.9 35.9145 198.337 36.6458 196.021 38.1082C193.718 39.5707 191.872 41.721 190.482 44.5591C189.106 47.3827 188.419 50.8434 188.419 54.9412C188.419 59.068 189.106 62.5432 190.482 65.3668C191.872 68.1904 193.718 70.3334 196.021 71.7959C198.337 73.2439 200.9 73.9679 203.709 73.9679C205.462 73.9679 207.091 73.7 208.596 73.1643C210.102 72.6285 211.449 71.8828 212.636 70.9271C213.824 69.957 214.808 68.8203 215.59 67.5171C216.387 66.2139 216.937 64.8021 217.241 63.2817H221.324C220.962 65.3234 220.282 67.2275 219.283 68.994C218.298 70.7461 217.038 72.281 215.503 73.5987C213.983 74.9164 212.231 75.9444 210.247 76.6829C208.263 77.4214 206.084 77.7906 203.709 77.7906C199.974 77.7906 196.658 76.8567 193.762 74.9888C190.866 73.1064 188.592 70.4565 186.942 67.0392C185.305 63.622 184.487 59.5893 184.487 54.9412C184.487 50.2931 185.305 46.2605 186.942 42.8432C188.592 39.4259 190.866 36.7833 193.762 34.9154C196.658 33.033 199.974 32.0918 203.709 32.0918C206.084 32.0918 208.263 32.461 210.247 33.1995C212.231 33.9235 213.983 34.9516 215.503 36.2838C217.038 37.6014 218.298 39.1363 219.283 40.8884C220.282 42.6405 220.962 44.5446 221.324 46.6007Z" fill="#0A0A0A"/>
<path d="M230.865 77.1825V32.7H245.222C248.378 32.7 251.014 33.2719 253.128 34.4158C255.256 35.5453 256.856 37.1164 257.928 39.1291C259.014 41.1273 259.557 43.4224 259.557 46.0143C259.557 48.6062 259.014 50.8941 257.928 52.8778C256.856 54.8616 255.264 56.4109 253.15 57.5259C251.036 58.6409 248.415 59.1983 245.287 59.1983H233.059V55.4842H245.178C247.495 55.4842 249.421 55.1005 250.956 54.3331C252.505 53.5656 253.656 52.4724 254.409 51.0533C255.177 49.6343 255.561 47.9546 255.561 46.0143C255.561 44.074 255.177 42.3798 254.409 40.9318C253.642 39.4694 252.484 38.3399 250.934 37.5435C249.399 36.7471 247.459 36.3489 245.113 36.3489H234.927V77.1825H230.865ZM250.478 57.1132L261.425 77.1825H256.733L245.895 57.1132H250.478Z" fill="#0A0A0A"/>
<path d="M269.45 32.7H274.142L290.28 71.4484H290.671L306.809 32.7H311.5V77.1825H307.678V41.2793H307.33L292.322 77.1825H288.629L273.621 41.2793H273.273V77.1825H269.45V32.7Z" fill="#0A0A0A"/>
</svg>
